<?xml version='1.0' encoding='utf-8'?>
<svg xmlns:xlink="http://www.w3.org/1999/xlink" xmlns="http://www.w3.org/2000/svg" viewBox="0 0 32 32"> <defs> <linearGradient id="i"> <stop stop-color="#fff" offset="0"/> <stop stop-color="#fff" stop-opacity="0" offset="1"/> </linearGradient> <linearGradient id="k" x1="31.02" x2="31.11" y1="1051.8" y2="1028.2" gradientTransform="translate(0 -1020.4)" gradientUnits="userSpaceOnUse" xlink:href="#i"/> <linearGradient id="l" x1="31.02" x2="31.18" y1="1021" y2="1025.2" gradientTransform="translate(0 -1020.4)" gradientUnits="userSpaceOnUse" xlink:href="#i"/> <radialGradient id="m" cx="12.628" cy="1050.1" r="16" gradientTransform="matrix(1.433 -1.4037 1.3587 1.3871 -1430.5 -1405.3)" gradientUnits="userSpaceOnUse"> <stop stop-color="#999" offset="0"/> <stop stop-color="#ccc" offset="1"/> </radialGradient> <linearGradient id="j"> <stop stop-color="#fff" stop-opacity=".8" offset="0"/> <stop stop-color="#fff" stop-opacity="0" offset="1"/> </linearGradient> <radialGradient id="n" cx="24" cy="39.844" r="15.844" gradientTransform="matrix(1.168 -1.1619 1.3643 1.3715 -65.78 -.31358)" gradientUnits="userSpaceOnUse"> <stop stop-color="#f60" offset="0"/> <stop stop-color="#f90" offset="1"/> </radialGradient> <linearGradient id="o" x2="0" y1="3.684" y2="24.847" gradientTransform="matrix(.55814 0 0 .55814 3.2179 1.729)" gradientUnits="userSpaceOnUse" xlink:href="#j"/> <linearGradient id="p" x2="0" y1="27.903" y2="44.32" gradientTransform="matrix(.55814 0 0 .55814 3.2179 1.729)" gradientUnits="userSpaceOnUse" xlink:href="#j"/> </defs> <rect width="32" height="32" rx="5" fill="url(#m)"/> <path d="m5 0.4816c-2.5134 0-4.5312 2.0178-4.5312 4.5312v22c0 2.5134 2.0178 4.5312 4.5312 4.5312h22c2.5134 0 4.5312-2.0178 4.5312-4.5312v-22c0-2.5134-2.0178-4.5312-4.5312-4.5312h-22z" fill="none" opacity=".4" stroke="#000"/> <path d="m5 1.4816c-1.9835 0-3.5312 1.5477-3.5312 3.5312v22c0 1.9835 1.5478 3.5312 3.5312 3.5312h22c1.9835 0 3.5312-1.5477 3.5312-3.5312v-22c0-1.9835-1.5478-3.5313-3.5312-3.5312h-22z" fill="none" opacity=".5" stroke="url(#l)"/> <path d="m5 1.4816c-1.9835 0-3.5312 1.5477-3.5312 3.5312v22c0 1.9835 1.5478 3.5312 3.5312 3.5312h22c1.9835 0 3.5312-1.5477 3.5312-3.5312v-22c0-1.9835-1.5478-3.5313-3.5312-3.5312h-22z" fill="none" opacity=".2" stroke="url(#k)"/> <g transform="matrix(.94602 0 0 .94602 .28728 1.1915)"> <path d="m16.625 2.9688c-3.2178 0-5.8125 3.0177-5.8125 6.7188s2.5947 6.7188 5.8125 6.7188 5.7812-3.0186 5.7812-6.7188c0-3.7001-2.5634-6.7188-5.7812-6.7188zm-4.0625 13.406c-1.5544 0.38091-2.8875 0.9732-3.875 1.7188s-1.6365 1.6358-1.75 2.625a0.16378 0.16378 0 0 0 0 0.03125v3.5312c0 1.6579 1.3087 3 2.9688 3h13.406c1.66 0 2.9687-1.3421 2.9688-3v-3.5312a0.16378 0.16378 0 0 0 0-0.03125c-0.11357-0.9895-0.73866-1.8794-1.7188-2.625s-2.3216-1.3384-3.875-1.7188a0.16378 0.16378 0 0 0-0.03125 0 0.16378 0.16378 0 0 0-0.03125 0 0.16378 0.16378 0 0 0-0.03125 0 0.16378 0.16378 0 0 0-0.03125 0.03125 0.16378 0.16378 0 0 0-0.03125 0.03125c-0.99848 1.1865-2.3815 1.9375-3.9062 1.9375-1.5305-1e-6 -2.9071-0.74416-3.9062-1.9375a0.16378 0.16378 0 0 0-0.03125-0.03125 0.16378 0.16378 0 0 0-0.03125-0.03125 0.16378 0.16378 0 0 0-0.03125 0 0.16378 0.16378 0 0 0-0.03125 0 0.16378 0.16378 0 0 0-0.03125 0z" opacity=".5"/> <path d="m16.613 4.0662c-2.5265 0-4.6919 2.4259-4.6919 5.6163s2.1688 5.6337 4.6919 5.6337c2.523 0 4.7093-2.4463 4.7093-5.6337s-2.1828-5.6163-4.7093-5.6163zm4.2035 13.517c-1.1286 1.1006-2.5463 1.8837-4.186 1.8837-1.656 0-3.1481-0.74025-4.2907-1.8663-1.2167 0.35034-2.2754 0.83039-3 1.3779-0.82287 0.62173-1.2392 1.2654-1.3081 1.8663v3.436c0 1.0733 0.81733 1.9012 1.8837 1.9012h13.395c1.0664 0 1.8837-0.82783 1.8837-1.9012v-3.3837a0.93708 0.93708 0 0 1 0-0.05233c-0.06911-0.60212-0.48509-1.2621-1.3081-1.8837-0.739-0.5581-1.8223-1.0269-3.0698-1.3779z" fill="url(#n)"/> <path d="m16.625 4.5938c-2.1768 0-4.1875 2.1509-4.1875 5.0938 0 2.9423 2.0169 5.0938 4.1875 5.0938 2.1702 0 4.1562-2.1533 4.1562-5.0938 1e-6 -2.941-1.9799-5.0938-4.1562-5.0938z" fill="none" opacity=".47" stroke="url(#o)" stroke-linecap="square" stroke-linejoin="round" stroke-width="1.179"/> <path d="m20.938 18.344c-1.165 1.0265-2.6202 1.7812-4.3125 1.7812-1.6994-1e-6 -3.2045-0.69046-4.4062-1.75-1.018 0.32046-1.9567 0.71453-2.5 1.125-0.70561 0.53313-0.95019 1.0099-1 1.375-0.0011 8e-3 9.075e-4 0.02334 0 0.03125v3.375c0 0.74787 0.45732 1.2188 1.1875 1.2188h13.406c0.73018 0 1.2187-0.47949 1.2188-1.2188v-3.375c-8.43e-4 -0.0073 1e-3 -0.02376 0-0.03125-0.0492-0.35275-0.32084-0.83849-1.0312-1.375-0.56841-0.42927-1.5012-0.83208-2.5625-1.1562z" fill="none" opacity=".4" stroke="url(#p)" stroke-linecap="square" stroke-linejoin="round" stroke-width="1.079"/> <path transform="matrix(1.0571 0 0 1.0571 -.30367 -1.788)" d="m10.531 11.5c-0.0057 0.11874 0 0.22339 0 0.34375 0 3.5013 2.4247 6.375 5.4688 6.375s5.4687-2.8746 5.4688-6.375c0-0.12033 0.0057-0.22504 0-0.34375-0.27757 3.198-2.6149 5.7188-5.4688 5.7188-2.8538 0-5.1879-2.5202-5.4688-5.7188zm-3.6875 13.156v1c0 1.5684 1.2421 2.8438 2.8125 2.8438h12.688c1.5704 0 2.8125-1.2754 2.8125-2.8438v-1c-2e-6 1.5684-1.2421 2.8438-2.8125 2.8438h-12.688c-1.5704 2e-6 -2.8125-1.2754-2.8125-2.8438z" fill="#2d2d2d" opacity=".3"/> </g> </svg>